<svg id="Capa_1" enable-background="new 0 0 512 512" fill="#fff" height="512" viewBox="0 0 512 512" width="512" xmlns="http://www.w3.org/2000/svg"><g><path d="m472.839 398.025-17.477-96.15c-.987-5.434-6.195-9.036-11.627-8.05-5.435.988-9.038 6.193-8.051 11.627l7.463 41.061-59.677 7.205c-3.868-30.263-3.767-34.914 3.515-69.119l24.198-113.747 8.414 46.249c.879 4.829 5.088 8.212 9.827 8.212.594 0 1.197-.053 1.802-.164 5.434-.988 9.037-6.195 8.049-11.628l-19.293-106.042c-.001-.005-.003-.01-.004-.016-1.898-14.251-9.566-25.522-28.095-34.921l-64.566-32.74-15.429-33.94c-1.622-3.57-5.182-5.862-9.103-5.862h-93.57c-3.921 0-7.48 2.292-9.104 5.861l-15.429 33.94-64.567 32.74c-18.531 9.4-26.199 20.669-28.093 34.915-.001.007-.004.014-.005.021l-52.856 290.546c-.493 2.711.154 5.506 1.79 7.724 1.635 2.218 4.113 3.663 6.849 3.994l67.385 8.144-11.743 53.01c-1.039 4.691 1.405 9.459 5.821 11.353l67.468 28.941c3.332 1.43 7.182.943 10.054-1.275l69.215-53.446 69.216 53.447c1.78 1.375 3.937 2.085 6.112 2.085 1.333 0 2.675-.267 3.941-.81l67.468-28.941c4.416-1.894 6.86-6.662 5.821-11.353l-11.743-53.01 67.385-8.144c2.735-.331 5.213-1.775 6.849-3.993 1.635-2.219 2.283-5.013 1.79-7.724zm-153.374-329.1 15.856 31.411-20.554 19.061c-3.13 2.903-4.072 7.473-2.346 11.377l14.153 32.005-60.574 83.245v-75.886zm-103.812-48.925h80.693l12.185 26.803-52.531 99.447-52.531-99.447zm-23.118 48.925 53.465 101.213v75.886l-60.575-83.246 14.153-32.005c1.727-3.904.784-8.474-2.346-11.377l-20.554-19.061zm-91.707 101.867 24.187 113.808c7.282 34.203 7.383 38.854 3.515 69.118l-59.669-7.204zm-40.09 220.367 4.536-24.934 59.757 7.214-5.5 24.825zm118.475 99.334-54.453-23.359 12.339-55.696c.003-.013.006-.027.009-.04l9.836-44.401c.001-.004.001-.007.002-.011.021-.093.032-.19.05-.285.037-.196.077-.391.103-.589l.479-3.715c1.251-9.679 2.218-17.182 2.813-23.732h41.121c5.522 0 10-4.477 10-10s-4.478-10-10-10h-40.662c-.603-9.833-2.544-20.717-6.272-38.226l-28.23-132.835c-3.608-16.923-5.542-28.067-4.72-36.167l.069-.379c.076-.416.115-.829.139-1.24 1.396-8.917 6.595-13.995 17.327-19.439l40.51-20.542-14.239 28.206c-2.009 3.979-1.142 8.808 2.127 11.839l20.842 19.328-13.598 30.75c-1.442 3.262-1.039 7.044 1.06 9.928l80.135 110.129v158.905zm153.574 0-66.787-51.571v-158.905l80.137-110.129c2.099-2.884 2.502-6.667 1.06-9.928l-13.598-30.75 20.842-19.328c3.269-3.031 4.136-7.86 2.127-11.839l-14.239-28.206 40.509 20.541c10.725 5.44 15.924 10.514 17.328 19.423.023.416.062.835.139 1.256l.076.419c.815 8.098-1.11 19.234-4.7 36.131l-28.258 132.828c-3.728 17.511-5.669 28.396-6.272 38.229h-40.662c-5.522 0-10 4.477-10 10s4.478 10 10 10h41.121c.595 6.55 1.562 14.053 2.813 23.732l.479 3.715c.025.198.065.393.103.589.018.094.029.191.05.285.001.004.001.007.002.011l9.836 44.401c.003.013.006.027.009.04l12.339 55.696zm59.682-92.228-5.5-24.825 59.762-7.215 4.532 24.934z"/><path d="m427.494 259.5v.028c0 5.523 4.478 9.986 10 9.986s10-4.491 10-10.014-4.478-10-10-10-10 4.478-10 10z"/></g></svg>